<?xml version="1.0" standalone="no"?>
<!DOCTYPE svg PUBLIC "-//W3C//DTD SVG 20010904//EN"
 "http://www.w3.org/TR/2001/REC-SVG-20010904/DTD/svg10.dtd">
<svg version="1.0" xmlns="http://www.w3.org/2000/svg"
 width="2048.000000pt" height="2048.000000pt" viewBox="0 0 2048.000000 2048.000000"
 preserveAspectRatio="xMidYMid meet">

<g transform="translate(0.000000,2048.000000) scale(0.100000,-0.100000)"
fill="#000000" stroke="none">
<path d="M10857 13404 c3 -8 12 -13 20 -10 8 3 82 6 164 6 93 0 149 4 149 10
0 6 -63 10 -170 10 -149 0 -169 -2 -163 -16z"/>
<path d="M11200 13410 c0 -5 5 -10 10 -10 6 0 10 5 10 10 0 6 -4 10 -10 10 -5
0 -10 -4 -10 -10z"/>
<path d="M11230 13411 c0 -10 127 -7 137 3 4 3 -26 6 -65 6 -40 0 -72 -4 -72
-9z"/>
<path d="M11395 13410 c8 -13 604 -13 625 0 10 6 -96 10 -308 10 -213 0 -321
-3 -317 -10z"/>
<path d="M12048 13413 c7 -3 16 -2 19 1 4 3 -2 6 -13 5 -11 0 -14 -3 -6 -6z"/>
<path d="M8670 13392 c-13 -5 -13 -52 0 -52 6 0 10 9 10 20 0 20 7 20 435 20
239 0 435 3 435 8 0 7 -859 11 -880 4z"/>
<path d="M10275 13390 c-4 -6 54 -10 152 -10 114 0 163 -4 172 -12 10 -11 12
-9 9 7 -3 19 -12 20 -165 22 -95 1 -165 -2 -168 -7z"/>
<path d="M12328 13388 c-13 -3 75 -6 195 -7 119 -1 217 2 217 7 0 9 -379 10
-412 0z"/>
<path d="M12750 13390 c0 -5 5 -10 10 -10 6 0 10 5 10 10 0 6 -4 10 -10 10 -5
0 -10 -4 -10 -10z"/>
<path d="M12784 13389 c-2 -4 54 -9 124 -13 70 -4 151 -9 180 -12 30 -4 52 -2
52 4 0 15 -347 35 -356 21z"/>
<path d="M10856 13372 c-3 -6 -1 -14 5 -17 15 -10 25 3 12 16 -7 7 -13 7 -17
1z"/>
<path d="M10610 13326 c0 -22 3 -27 11 -19 8 8 8 16 0 30 -9 16 -10 14 -11
-11z"/>
<path d="M10887 13300 c3 -19 9 -37 13 -40 4 -3 11 -22 15 -43 8 -39 25 -51
25 -17 0 11 -4 20 -9 20 -5 0 -12 18 -16 40 -4 22 -11 40 -15 40 -5 0 -11 8
-13 18 -2 9 -2 1 0 -18z"/>
<path d="M8680 13308 c0 -9 5 -20 10 -23 6 -3 10 -14 10 -23 0 -9 7 -30 15
-46 8 -16 18 -46 21 -67 7 -43 24 -53 24 -14 0 14 -4 25 -10 25 -5 0 -10 8
-10 18 0 9 -7 30 -15 46 -8 15 -15 36 -15 45 0 10 -7 26 -15 37 -13 17 -14 17
-15 2z"/>
<path d="M10629 13295 c-8 -8 12 -65 23 -65 11 0 10 14 -1 26 -5 5 -11 17 -13
27 -1 11 -6 16 -9 12z"/>
<path d="M10660 13195 c0 -8 5 -15 10 -15 6 0 10 7 10 15 0 8 -4 15 -10 15 -5
0 -10 -7 -10 -15z"/>
<path d="M8439 13158 c-7 -18 -14 -36 -17 -40 -2 -5 1 -8 6 -8 5 0 13 12 17
27 l6 26 15 -29 c21 -39 34 -52 34 -32 0 9 -4 18 -8 20 -4 2 -15 18 -24 36
l-15 34 -14 -34z"/>
<path d="M10676 13163 c5 -5 12 -12 16 -18 4 -6 8 -2 8 8 0 9 -7 17 -17 17 -9
0 -12 -3 -7 -7z"/>
<path d="M10941 13154 c0 -11 3 -14 6 -6 3 7 2 16 -1 19 -3 4 -6 -2 -5 -13z"/>
<path d="M10702 13110 c-1 -14 5 -34 13 -44 8 -11 15 -31 15 -45 0 -20 3 -22
12 -13 10 10 10 17 0 32 -6 11 -12 27 -12 35 0 8 -4 15 -9 15 -5 0 -12 10 -14
23 -4 21 -4 20 -5 -3z"/>
<path d="M10950 13122 c0 -13 24 -62 31 -62 3 0 1 16 -5 35 -10 31 -26 48 -26
27z"/>
<path d="M8400 13075 c1 -26 2 -28 11 -12 8 14 8 22 0 30 -8 8 -11 3 -11 -18z"/>
<path d="M8766 13070 c7 -42 9 -44 24 -35 8 5 7 12 -3 23 -8 10 -17 24 -21 32
-3 8 -3 -1 0 -20z"/>
<path d="M8508 13074 c-4 -6 -1 -28 7 -50 14 -40 18 -23 6 31 -3 17 -9 25 -13
19z"/>
<path d="M10990 13036 c0 -8 5 -18 10 -21 6 -3 10 3 10 14 0 12 -4 21 -10 21
-5 0 -10 -6 -10 -14z"/>
<path d="M8375 13000 c-4 -22 -10 -42 -15 -45 -4 -3 -11 -21 -15 -41 -3 -20
-11 -46 -17 -58 -28 -54 -29 -59 -21 -67 6 -6 17 14 28 48 10 32 24 72 32 90
7 17 13 40 13 51 0 12 5 24 10 27 13 8 13 35 1 35 -5 0 -12 -18 -16 -40z"/>
<path d="M8790 13006 c0 -9 7 -16 16 -16 9 0 14 5 12 12 -6 18 -28 21 -28 4z"/>
<path d="M10751 12984 c0 -11 3 -14 6 -6 3 7 2 16 -1 19 -3 4 -6 -2 -5 -13z"/>
<path d="M11010 12981 c0 -12 5 -21 10 -21 6 0 10 6 10 14 0 8 -4 18 -10 21
-5 3 -10 -3 -10 -14z"/>
<path d="M8530 12966 c0 -8 5 -18 10 -21 6 -3 10 -15 10 -26 0 -10 5 -19 11
-19 7 0 8 7 4 18 -4 9 -10 27 -12 40 -6 24 -23 30 -23 8z"/>
<path d="M8822 12960 c0 -14 2 -19 5 -12 2 6 2 18 0 25 -3 6 -5 1 -5 -13z"/>
<path d="M10760 12942 c0 -12 4 -22 9 -22 5 0 11 -6 14 -12 2 -7 2 -2 0 12 -6
34 -23 50 -23 22z"/>
<path d="M11037 12910 c3 -19 9 -37 13 -40 4 -3 11 -22 15 -43 4 -20 11 -37
16 -37 12 0 12 27 0 34 -5 4 -12 24 -16 46 -4 22 -11 40 -15 40 -5 0 -11 8
-13 18 -2 9 -2 1 0 -18z"/>
<path d="M8830 12910 c0 -11 5 -20 10 -20 6 0 10 9 10 20 0 11 -4 20 -10 20
-5 0 -10 -9 -10 -20z"/>
<path d="M8576 12850 c5 -47 10 -57 21 -47 3 4 1 17 -5 30 -6 12 -13 31 -16
42 -3 11 -3 0 0 -25z"/>
<path d="M8854 12860 c3 -14 6 -34 6 -44 0 -15 3 -17 11 -9 9 9 8 20 -5 45
-14 26 -16 28 -12 8z"/>
<path d="M10790 12856 c0 -8 7 -16 15 -20 8 -3 15 -18 15 -32 0 -15 3 -25 6
-21 12 11 -7 87 -22 87 -8 0 -14 -6 -14 -14z"/>
<path d="M8881 12789 c-2 -27 11 -79 20 -79 5 0 9 9 9 20 0 11 -4 20 -9 20 -5
0 -12 12 -14 28 -2 15 -5 20 -6 11z"/>
<path d="M8600 12775 c0 -8 2 -15 4 -15 2 0 6 7 10 15 3 8 1 15 -4 15 -6 0
-10 -7 -10 -15z"/>
<path d="M10841 12764 c0 -11 3 -14 6 -6 3 7 2 16 -1 19 -3 4 -6 -2 -5 -13z"/>
<path d="M11090 12766 c0 -9 5 -16 10 -16 6 0 10 4 10 9 0 6 -4 13 -10 16 -5
3 -10 -1 -10 -9z"/>
<path d="M8280 12761 c0 -6 5 -13 10 -16 6 -3 10 1 10 9 0 9 -4 16 -10 16 -5
0 -10 -4 -10 -9z"/>
<path d="M8610 12730 c0 -5 7 -10 15 -10 8 0 15 5 15 10 0 6 -7 10 -15 10 -8
0 -15 -4 -15 -10z"/>
<path d="M10850 12721 c0 -12 4 -21 9 -21 6 0 13 -21 17 -46 5 -33 9 -43 17
-35 8 8 8 16 1 29 -7 10 -15 32 -18 50 -9 37 -26 53 -26 23z"/>
<path d="M11110 12720 c0 -11 5 -20 10 -20 6 0 10 9 10 20 0 11 -4 20 -10 20
-5 0 -10 -9 -10 -20z"/>
<path d="M8260 12705 c0 -8 7 -15 15 -15 8 0 15 7 15 15 0 8 -7 15 -15 15 -8
0 -15 -7 -15 -15z"/>
<path d="M8642 12685 c0 -16 2 -22 5 -12 2 9 2 23 0 30 -3 6 -5 -1 -5 -18z"/>
<path d="M8910 12686 c0 -9 5 -16 10 -16 6 0 10 4 10 9 0 6 -4 13 -10 16 -5 3
-10 -1 -10 -9z"/>
<path d="M11130 12675 c0 -8 5 -15 10 -15 6 0 10 -10 10 -22 0 -12 3 -19 6
-15 9 8 -6 67 -17 67 -5 0 -9 -7 -9 -15z"/>
<path d="M8252 12660 c0 -14 2 -19 5 -12 2 6 2 18 0 25 -3 6 -5 1 -5 -13z"/>
<path d="M8930 12645 c0 -8 9 -30 19 -49 11 -19 23 -51 27 -70 3 -20 10 -36
15 -36 5 0 10 -10 10 -22 1 -17 2 -19 6 -6 2 10 -2 31 -10 48 -9 16 -18 43
-22 60 -4 16 -11 32 -16 35 -5 4 -9 17 -9 31 0 13 -4 24 -10 24 -5 0 -10 -7
-10 -15z"/>
<path d="M8664 12616 c5 -41 12 -53 23 -43 3 4 1 17 -5 30 -6 12 -13 29 -16
37 -4 8 -4 -2 -2 -24z"/>
<path d="M8225 12591 c-4 -28 -11 -48 -16 -45 -5 3 -9 -5 -9 -18 1 -22 1 -22
15 -4 8 11 15 28 15 38 0 10 6 27 12 38 9 14 10 22 1 31 -8 8 -13 -3 -18 -40z"/>
<path d="M10901 12600 c-1 -24 10 -60 20 -60 5 0 9 7 9 15 0 8 -4 15 -9 15 -5
0 -12 10 -14 23 -2 12 -5 15 -6 7z"/>
<path d="M11160 12590 c0 -11 5 -20 10 -20 6 0 10 9 10 20 0 11 -4 20 -10 20
-5 0 -10 -9 -10 -20z"/>
<path d="M8685 12543 c4 -10 10 -28 12 -40 3 -13 9 -23 14 -23 12 0 11 27 -1
35 -5 3 -10 15 -10 26 0 10 -5 19 -11 19 -7 0 -8 -7 -4 -17z"/>
<path d="M11186 12525 c3 -22 9 -42 14 -45 4 -3 10 -14 13 -25 4 -11 4 -2 1
20 -3 22 -9 42 -14 45 -4 3 -10 14 -13 25 -4 11 -4 2 -1 -20z"/>
<path d="M10936 12505 c4 -8 8 -15 10 -15 2 0 4 7 4 15 0 8 -4 15 -10 15 -5 0
-7 -7 -4 -15z"/>
<path d="M8187 12485 c-4 -8 -2 -17 3 -20 6 -4 10 3 10 14 0 25 -6 27 -13 6z"/>
<path d="M10962 12465 c0 -11 3 -31 8 -45 6 -22 8 -23 15 -6 5 10 4 21 -2 25
-6 3 -13 15 -16 26 l-5 20 0 -20z"/>
<path d="M8722 12445 c0 -16 2 -22 5 -12 2 9 2 23 0 30 -3 6 -5 -1 -5 -18z"/>
<path d="M8170 12432 c0 -13 -7 -25 -15 -28 -8 -4 -15 -10 -15 -15 0 -14 25 0
39 22 9 15 10 24 2 32 -8 8 -11 5 -11 -11z"/>
<path d="M9010 12421 c0 -12 5 -21 10 -21 6 0 10 6 10 14 0 8 -4 18 -10 21 -5
3 -10 -3 -10 -14z"/>
<path d="M14050 12436 c0 -2 7 -7 16 -10 8 -3 12 -2 9 4 -6 10 -25 14 -25 6z"/>
<path d="M11230 12410 c0 -5 5 -10 10 -10 6 0 10 5 10 10 0 6 -4 10 -10 10 -5
0 -10 -4 -10 -10z"/>
<path d="M8730 12400 c0 -5 4 -10 9 -10 6 0 13 5 16 10 3 6 -1 10 -9 10 -9 0
-16 -4 -16 -10z"/>
<path d="M10996 12365 c6 -44 10 -52 21 -42 3 4 1 17 -5 30 -6 12 -13 29 -16
37 -3 8 -3 -3 0 -25z"/>
<path d="M9032 12370 c0 -14 2 -19 5 -12 2 6 2 18 0 25 -3 6 -5 1 -5 -13z"/>
<path d="M11250 12376 c0 -9 5 -16 10 -16 6 0 10 4 10 9 0 6 -4 13 -10 16 -5
3 -10 -1 -10 -9z"/>
<path d="M8132 12345 c0 -16 2 -22 5 -12 2 9 2 23 0 30 -3 6 -5 -1 -5 -18z"/>
<path d="M8762 12350 c0 -14 2 -19 5 -12 2 6 2 18 0 25 -3 6 -5 1 -5 -13z"/>
<path d="M11272 12330 c0 -14 2 -19 5 -12 2 6 2 18 0 25 -3 6 -5 1 -5 -13z"/>
<path d="M9050 12325 c0 -8 5 -15 10 -15 6 0 10 7 10 15 0 8 -4 15 -10 15 -5
0 -10 -7 -10 -15z"/>
<path d="M8786 12285 c6 -44 10 -52 21 -42 3 4 1 17 -5 30 -6 12 -13 29 -16
37 -3 8 -3 -3 0 -25z"/>
<path d="M8110 12298 c0 -7 -3 -24 -6 -38 -4 -18 -1 -16 10 9 19 39 19 41 6
41 -5 0 -10 -6 -10 -12z"/>
<path d="M11021 12300 c-1 -24 10 -60 20 -60 5 0 9 7 9 15 0 8 -4 15 -9 15 -5
0 -12 10 -14 23 -2 12 -5 15 -6 7z"/>
<path d="M9070 12280 c0 -19 3 -21 12 -12 9 9 9 15 0 24 -9 9 -12 7 -12 -12z"/>
<path d="M11280 12280 c0 -11 4 -20 9 -20 5 0 11 -10 13 -22 3 -21 10 -24 78
-29 41 -4 181 -6 310 -6 145 0 201 2 145 6 -49 3 -159 6 -242 6 -84 0 -153 3
-153 8 0 4 -29 7 -65 7 l-64 0 -7 35 c-7 37 -24 48 -24 15z"/>
<path d="M14216 12277 c3 -10 9 -15 12 -12 3 3 0 11 -7 18 -10 9 -11 8 -5 -6z"/>
<path d="M14244 12244 c3 -9 6 -87 6 -175 0 -99 4 -159 10 -159 6 0 10 65 10
175 0 154 -2 175 -16 175 -11 0 -14 -5 -10 -16z"/>
<path d="M9091 12234 c0 -11 3 -14 6 -6 3 7 2 16 -1 19 -3 4 -6 -2 -5 -13z"/>
<path d="M8080 12209 c0 -14 -5 -30 -12 -37 -9 -9 -9 -15 0 -24 9 -9 12 -8 12
5 0 10 6 26 12 37 10 15 10 22 0 32 -9 9 -12 7 -12 -13z"/>
<path d="M8816 12190 c3 -25 9 -46 14 -48 6 -2 11 -13 11 -25 1 -17 2 -18 6
-5 2 10 -2 32 -11 50 -8 18 -17 42 -20 53 -3 11 -3 0 0 -25z"/>
<path d="M11050 12210 c0 -11 5 -20 10 -20 6 0 10 9 10 20 0 11 -4 20 -10 20
-5 0 -10 -9 -10 -20z"/>
<path d="M9100 12196 c0 -8 4 -17 9 -20 5 -4 12 -24 16 -46 4 -22 11 -40 15
-40 5 0 11 -10 13 -22 2 -13 2 -5 0 17 -2 22 -8 42 -13 45 -4 3 -11 22 -15 43
-7 36 -25 52 -25 23z"/>
<path d="M11081 12164 c0 -11 3 -14 6 -6 3 7 2 16 -1 19 -3 4 -6 -2 -5 -13z"/>
<path d="M8052 12120 c0 -14 2 -19 5 -12 2 6 2 18 0 25 -3 6 -5 1 -5 -13z"/>
<path d="M11090 12120 c0 -11 4 -20 9 -20 5 0 12 -18 16 -40 4 -22 11 -40 15
-40 5 0 11 -8 13 -17 2 -10 2 -2 0 17 -3 19 -9 37 -13 40 -4 3 -11 22 -15 43
-8 39 -25 51 -25 17z"/>
<path d="M8030 12071 c0 -11 5 -23 10 -26 6 -4 10 5 10 19 0 14 -4 26 -10 26
-5 0 -10 -9 -10 -19z"/>
<path d="M8850 12064 c0 -14 4 -23 10 -19 6 3 10 15 10 26 0 10 -4 19 -10 19
-5 0 -10 -12 -10 -26z"/>
<path d="M8010 12020 c0 -19 3 -21 12 -12 9 9 9 15 0 24 -9 9 -12 7 -12 -12z"/>
<path d="M8874 12029 c-3 -6 -1 -16 5 -22 8 -8 11 -5 11 11 0 24 -5 28 -16 11z"/>
<path d="M9170 12016 c0 -9 5 -16 10 -16 6 0 10 4 10 9 0 6 -4 13 -10 16 -5 3
-10 -1 -10 -9z"/>
<path d="M7985 11961 c-4 -23 -11 -43 -16 -47 -5 -3 -9 -13 -9 -23 0 -10 -7
-32 -15 -47 -17 -33 -20 -68 -5 -59 5 3 7 12 3 20 -3 8 -1 15 5 15 10 0 26 55
23 78 -1 6 2 12 7 12 10 0 26 79 18 87 -2 2 -7 -14 -11 -36z"/>
<path d="M8906 11955 c3 -22 10 -41 15 -43 5 -2 10 -16 10 -30 2 -23 2 -24 6
-5 2 12 -2 37 -10 55 -9 18 -18 40 -21 48 -3 8 -3 -3 0 -25z"/>
<path d="M9190 11971 c0 -12 5 -21 10 -21 6 0 10 6 10 14 0 8 -4 18 -10 21 -5
3 -10 -3 -10 -14z"/>
<path d="M11150 11956 c0 -8 5 -18 10 -21 6 -3 10 -15 10 -26 0 -10 5 -19 10
-19 6 0 10 6 10 14 0 8 -4 18 -10 21 -5 3 -10 15 -10 26 0 10 -4 19 -10 19 -5
0 -10 -6 -10 -14z"/>
<path d="M9216 11905 c6 -44 10 -52 21 -42 3 4 1 17 -5 30 -6 12 -13 29 -16
37 -3 8 -3 -3 0 -25z"/>
<path d="M14250 11890 c0 -5 5 -10 10 -10 6 0 10 5 10 10 0 6 -4 10 -10 10 -5
0 -10 -4 -10 -10z"/>
<path d="M11194 11879 c-3 -6 -1 -16 5 -22 8 -8 11 -5 11 11 0 24 -5 28 -16
11z"/>
<path d="M14250 11820 c0 -27 5 -50 10 -50 6 0 10 23 10 50 0 28 -4 50 -10 50
-5 0 -10 -22 -10 -50z"/>
<path d="M8940 11830 c0 -11 5 -20 10 -20 6 0 10 9 10 20 0 11 -4 20 -10 20
-5 0 -10 -9 -10 -20z"/>
<path d="M9240 11837 c0 -11 6 -33 14 -50 8 -18 17 -39 20 -47 3 -8 4 2 1 22
-7 43 -35 104 -35 75z"/>
<path d="M11210 11825 c0 -8 5 -15 10 -15 6 0 10 7 10 15 0 8 -4 15 -10 15 -5
0 -10 -7 -10 -15z"/>
<path d="M8961 11790 c-1 -24 10 -60 20 -60 5 0 9 7 9 15 0 8 -4 15 -9 15 -5
0 -12 10 -14 23 -2 12 -5 15 -6 7z"/>
<path d="M11231 11787 c0 -11 5 -33 13 -50 8 -18 17 -39 20 -47 3 -8 3 3 0 25
-3 22 -9 42 -14 45 -4 3 -10 14 -13 25 -4 18 -5 18 -6 2z"/>
<path d="M7915 11757 c-4 -10 -5 -21 -1 -24 10 -10 18 4 13 24 -4 17 -4 17
-12 0z"/>
<path d="M14250 11750 c0 -5 5 -10 10 -10 6 0 10 5 10 10 0 6 -4 10 -10 10 -5
0 -10 -4 -10 -10z"/>
<path d="M9286 11713 c-4 -9 -2 -21 4 -27 7 -7 10 -2 10 17 0 31 -5 34 -14 10z"/>
<path d="M14250 11700 c0 -16 5 -30 10 -30 6 0 10 14 10 30 0 17 -4 30 -10 30
-5 0 -10 -13 -10 -30z"/>
<path d="M7890 11710 c0 -5 5 -10 10 -10 6 0 10 5 10 10 0 6 -4 10 -10 10 -5
0 -10 -4 -10 -10z"/>
<path d="M8990 11695 c0 -14 5 -25 10 -25 6 0 10 11 10 25 0 14 -4 25 -10 25
-5 0 -10 -11 -10 -25z"/>
<path d="M7872 11660 c0 -14 2 -19 5 -12 2 6 2 18 0 25 -3 6 -5 1 -5 -13z"/>
<path d="M9017 11657 c-3 -8 -1 -20 4 -28 6 -10 9 -7 9 14 0 29 -5 35 -13 14z"/>
<path d="M9300 11662 c0 -6 6 -15 14 -19 8 -4 16 -19 19 -33 l4 -25 2 26 c0
15 -8 34 -19 44 -11 10 -20 13 -20 7z"/>
<path d="M11270 11655 c0 -8 5 -15 10 -15 6 0 10 7 10 15 0 8 -4 15 -10 15 -5
0 -10 -7 -10 -15z"/>
<path d="M14250 11646 c0 -8 5 -18 10 -21 6 -3 10 3 10 14 0 12 -4 21 -10 21
-5 0 -10 -6 -10 -14z"/>
<path d="M7862 11610 c0 -14 2 -19 5 -12 2 6 2 18 0 25 -3 6 -5 1 -5 -13z"/>
<path d="M11291 11614 c0 -11 3 -14 6 -6 3 7 2 16 -1 19 -3 4 -6 -2 -5 -13z"/>
<path d="M9030 11595 c0 -8 5 -15 10 -15 6 0 10 7 10 15 0 8 -4 15 -10 15 -5
0 -10 -7 -10 -15z"/>
<path d="M14250 11570 c0 -22 5 -40 10 -40 6 0 10 18 10 40 0 22 -4 40 -10 40
-5 0 -10 -18 -10 -40z"/>
<path d="M7835 11551 c-4 -22 -11 -43 -16 -47 -5 -3 -9 -16 -9 -30 0 -13 -4
-24 -10 -24 -5 0 -10 -9 -10 -20 0 -11 -4 -20 -9 -20 -6 0 -9 -9 -8 -20 1 -11
5 -20 9 -20 4 0 8 9 8 20 0 11 4 20 9 20 6 0 13 20 17 45 3 25 10 45 15 45 5
0 9 10 9 23 0 13 5 28 12 35 9 9 9 15 1 23 -8 8 -13 0 -18 -30z"/>
<path d="M9340 11566 c0 -8 4 -17 9 -20 5 -4 12 -24 16 -46 7 -41 25 -56 25
-20 0 11 -4 20 -9 20 -5 0 -12 18 -16 40 -6 38 -25 57 -25 26z"/>
<path d="M11300 11577 c0 -1 9 -20 19 -40 12 -23 22 -33 26 -27 4 7 2 17 -4
23 -6 6 -11 19 -11 29 0 10 -7 18 -15 18 -8 0 -15 -1 -15 -3z"/>
<path d="M9051 11550 c-1 -24 10 -60 20 -60 5 0 9 7 9 15 0 8 -4 15 -9 15 -5
0 -12 10 -14 23 -2 12 -5 15 -6 7z"/>
<path d="M14250 11510 c0 -5 5 -10 10 -10 6 0 10 5 10 10 0 6 -4 10 -10 10 -5
0 -10 -4 -10 -10z"/>
<path d="M11352 11480 c0 -14 3 -36 8 -50 6 -22 8 -23 15 -6 5 10 4 21 -3 25
-5 3 -12 17 -15 31 l-4 25 -1 -25z"/>
<path d="M14251 11430 c1 -33 6 -60 10 -60 5 0 9 27 9 60 0 35 -4 60 -10 60
-6 0 -10 -24 -9 -60z"/>
<path d="M9082 11470 c-3 -30 11 -89 19 -84 12 7 11 44 0 44 -5 0 -12 12 -14
28 -2 15 -5 20 -5 12z"/>
<path d="M9398 11415 c6 -41 22 -57 22 -22 0 15 -4 27 -9 27 -5 0 -11 6 -14
13 -2 6 -2 -1 1 -18z"/>
<path d="M11381 11400 c-1 -14 34 -124 46 -143 2 -4 9 -5 14 -1 6 4 5 12 -5
22 -8 10 -17 34 -21 55 -4 20 -11 37 -15 37 -5 0 -11 10 -13 23 -2 12 -5 15
-6 7z"/>
<path d="M9111 11365 c-1 -11 6 -31 15 -43 9 -13 20 -35 24 -50 7 -25 8 -25
16 -8 5 13 3 21 -4 24 -7 2 -12 12 -12 23 0 10 -4 19 -9 19 -5 0 -14 12 -19
28 -8 21 -11 23 -11 7z"/>
<path d="M7745 11324 c-3 -20 -4 -39 -1 -42 3 -3 6 4 6 16 0 11 7 27 15 35 8
8 11 17 8 21 -13 13 -21 5 -28 -30z"/>
<path d="M9420 11341 c0 -12 5 -21 10 -21 6 0 10 6 10 14 0 8 -4 18 -10 21 -5
3 -10 -3 -10 -14z"/>
<path d="M14250 11234 c0 -81 4 -123 10 -119 6 4 10 57 10 126 0 73 -4 119
-10 119 -6 0 -10 -49 -10 -126z"/>
<path d="M9440 11301 c0 -6 5 -13 10 -16 6 -3 10 -15 10 -26 0 -10 5 -19 10
-19 6 0 10 9 10 20 0 11 -4 20 -10 20 -5 0 -10 7 -10 15 0 8 -4 15 -10 15 -5
0 -10 -4 -10 -9z"/>
<path d="M7713 11232 c-6 -20 -8 -41 -4 -45 5 -5 11 11 15 34 9 53 4 58 -11
11z"/>
<path d="M9172 11220 c0 -14 2 -19 5 -12 2 6 2 18 0 25 -3 6 -5 1 -5 -13z"/>
<path d="M11445 11231 c-3 -5 -1 -12 5 -16 5 -3 10 1 10 9 0 18 -6 21 -15 7z"/>
<path d="M9481 11210 c0 -14 5 -37 13 -52 8 -15 17 -42 21 -60 4 -18 11 -37
15 -43 4 -5 10 -19 13 -30 3 -11 3 0 0 25 -3 25 -9 47 -13 50 -4 3 -11 24 -15
48 -4 23 -11 42 -15 42 -5 0 -11 10 -13 23 -4 21 -4 20 -6 -3z"/>
<path d="M11475 11171 c3 -18 5 -41 5 -49 0 -12 3 -13 12 -4 9 9 9 17 1 34 -7
13 -14 30 -17 38 -4 8 -4 0 -1 -19z"/>
<path d="M9180 11170 c0 -11 5 -20 10 -20 6 0 10 -10 10 -22 0 -12 3 -19 6
-16 8 9 -7 78 -17 78 -5 0 -9 -9 -9 -20z"/>
<path d="M7691 11164 c0 -11 3 -14 6 -6 3 7 2 16 -1 19 -3 4 -6 -2 -5 -13z"/>
<path d="M7675 11127 c-4 -10 -5 -21 -1 -24 10 -10 18 4 13 24 -4 17 -4 17
-12 0z"/>
<path d="M11501 11094 c0 -11 3 -14 6 -6 3 7 2 16 -1 19 -3 4 -6 -2 -5 -13z"/>
<path d="M9210 11086 c0 -8 5 -18 10 -21 6 -3 10 3 10 14 0 12 -4 21 -10 21
-5 0 -10 -6 -10 -14z"/>
<path d="M14238 11033 c-4 -66 -2 -81 6 -72 7 8 12 139 5 139 -4 0 -9 -30 -11
-67z"/>
<path d="M7662 11070 c0 -14 2 -19 5 -12 2 6 2 18 0 25 -3 6 -5 1 -5 -13z"/>
<path d="M11510 11050 c0 -11 5 -20 10 -20 6 0 10 -7 10 -17 0 -9 2 -14 5 -11
8 8 -6 68 -16 68 -5 0 -9 -9 -9 -20z"/>
<path d="M9232 11030 c0 -14 2 -19 5 -12 2 6 2 18 0 25 -3 6 -5 1 -5 -13z"/>
<path d="M11793 11028 c3 -13 11 -44 17 -70 6 -27 16 -48 21 -48 5 0 9 -12 9
-27 0 -19 3 -24 10 -17 10 10 -3 58 -20 74 -3 3 -6 10 -6 15 -1 6 -4 25 -7 43
l-6 32 124 0 c77 0 125 4 125 10 0 6 -52 10 -136 10 l-136 0 5 -22z"/>
<path d="M7630 11030 c0 -5 7 -10 15 -10 8 0 15 5 15 10 0 6 -7 10 -15 10 -8
0 -15 -4 -15 -10z"/>
<path d="M9560 10989 c0 -11 4 -18 10 -14 5 3 7 12 3 20 -7 21 -13 19 -13 -6z"/>
<path d="M7622 10980 c0 -14 2 -19 5 -12 2 6 2 18 0 25 -3 6 -5 1 -5 -13z"/>
<path d="M9245 10991 c-3 -5 -1 -12 4 -15 5 -3 11 1 15 9 6 16 -9 21 -19 6z"/>
<path d="M11546 10978 c-5 -10 -1 -27 10 -44 11 -16 20 -22 22 -14 3 7 0 15
-6 19 -5 3 -12 17 -14 31 -4 20 -6 22 -12 8z"/>
<path d="M9266 10945 c4 -8 8 -15 10 -15 2 0 4 7 4 15 0 8 -4 15 -10 15 -5 0
-7 -7 -4 -15z"/>
<path d="M9580 10946 c0 -8 5 -18 10 -21 6 -3 10 -16 10 -27 0 -12 3 -19 6
-16 8 9 -7 78 -17 78 -5 0 -9 -6 -9 -14z"/>
<path d="M7601 10939 c0 -9 -8 -30 -16 -45 -8 -16 -15 -39 -15 -51 0 -12 -4
-25 -10 -28 -13 -8 -13 -35 -1 -35 5 0 12 18 16 40 4 23 14 54 22 70 8 17 12
38 10 48 -4 14 -5 15 -6 1z"/>
<path d="M9297 10875 c2 -22 8 -44 14 -49 13 -14 11 -42 -3 -66 -12 -19 -5
-40 9 -26 12 11 8 112 -4 127 -6 8 -13 23 -16 34 -2 11 -3 2 0 -20z"/>
<path d="M11587 10893 c-4 -7 1 -27 12 -46 10 -19 21 -43 24 -53 4 -18 5 -18
6 -1 0 11 -5 33 -13 50 -8 18 -16 39 -18 47 -3 10 -6 11 -11 3z"/>
<path d="M9610 10850 c0 -11 5 -20 10 -20 6 0 10 9 10 20 0 11 -4 20 -10 20
-5 0 -10 -9 -10 -20z"/>
<path d="M11861 10834 c0 -11 3 -14 6 -6 3 7 2 16 -1 19 -3 4 -6 -2 -5 -13z"/>
<path d="M9631 10804 c0 -11 3 -14 6 -6 3 7 2 16 -1 19 -3 4 -6 -2 -5 -13z"/>
<path d="M11870 10795 c0 -8 7 -15 15 -15 8 0 15 7 15 15 0 8 -7 15 -15 15 -8
0 -15 -7 -15 -15z"/>
<path d="M9645 10763 c4 -10 11 -31 15 -48 10 -37 12 -10 4 34 -4 17 -11 31
-16 31 -6 0 -7 -8 -3 -17z"/>
<path d="M7541 10754 c0 -11 3 -14 6 -6 3 7 2 16 -1 19 -3 4 -6 -2 -5 -13z"/>
<path d="M11630 10756 c0 -8 4 -17 9 -20 5 -3 12 -22 15 -41 7 -34 26 -49 26
-20 0 8 -4 15 -9 15 -5 0 -12 18 -16 40 -6 38 -25 57 -25 26z"/>
<path d="M11901 10744 c0 -11 3 -14 6 -6 3 7 2 16 -1 19 -3 4 -6 -2 -5 -13z"/>
<path d="M7520 10710 c0 -11 5 -20 10 -20 6 0 10 9 10 20 0 11 -4 20 -10 20
-5 0 -10 -9 -10 -20z"/>
<path d="M9292 10695 c0 -16 2 -22 5 -12 2 9 2 23 0 30 -3 6 -5 -1 -5 -18z"/>
<path d="M11910 10705 c0 -8 5 -15 10 -15 6 0 10 7 10 15 0 8 -4 15 -10 15 -5
0 -10 -7 -10 -15z"/>
<path d="M9680 10670 c0 -19 3 -21 12 -12 9 9 9 15 0 24 -9 9 -12 7 -12 -12z"/>
<path d="M7500 10659 c0 -11 5 -17 10 -14 6 3 10 13 10 21 0 8 -4 14 -10 14
-5 0 -10 -9 -10 -21z"/>
<path d="M11932 10660 c0 -14 2 -19 5 -12 2 6 2 18 0 25 -3 6 -5 1 -5 -13z"/>
<path d="M9265 10651 c-3 -6 -3 -15 0 -21 3 -5 2 -10 -4 -10 -13 0 -34 -65
-28 -87 3 -12 5 -9 6 8 0 15 7 29 15 32 7 3 17 22 20 42 7 38 3 55 -9 36z"/>
<path d="M9697 10629 c-3 -13 -1 -19 6 -16 15 5 22 37 9 37 -5 0 -12 -9 -15
-21z"/>
<path d="M11680 10630 c0 -11 9 -30 20 -42 17 -19 20 -19 20 -5 0 9 -4 17 -10
17 -5 0 -10 9 -10 19 0 11 -4 23 -10 26 -5 3 -10 -3 -10 -15z"/>
<path d="M7482 10620 c0 -14 2 -19 5 -12 2 6 2 18 0 25 -3 6 -5 1 -5 -13z"/>
<path d="M11946 10632 c-5 -8 -4 -18 3 -25 6 -6 11 -20 11 -31 0 -15 3 -17 12
-8 8 8 8 15 1 24 -6 7 -13 22 -15 33 -3 15 -5 17 -12 7z"/>
<path d="M9721 10584 c0 -11 3 -14 6 -6 3 7 2 16 -1 19 -3 4 -6 -2 -5 -13z"/>
<path d="M7460 10576 c0 -8 5 -18 10 -21 6 -3 10 3 10 14 0 12 -4 21 -10 21
-5 0 -10 -6 -10 -14z"/>
<path d="M9730 10546 c0 -8 5 -18 10 -21 6 -3 10 -18 10 -32 0 -15 3 -24 6
-20 9 9 -6 87 -17 87 -5 0 -9 -6 -9 -14z"/>
<path d="M11720 10540 c0 -11 4 -20 9 -20 5 0 12 -18 16 -40 4 -22 11 -42 16
-46 5 -3 9 -13 9 -22 1 -27 37 -96 44 -84 3 6 2 13 -4 17 -5 3 -10 15 -10 26
0 10 -4 19 -9 19 -5 0 -12 18 -16 40 -4 22 -10 42 -15 45 -5 3 -11 23 -15 45
-7 41 -25 56 -25 20z"/>
<path d="M11981 10534 c0 -11 3 -14 6 -6 3 7 2 16 -1 19 -3 4 -6 -2 -5 -13z"/>
<path d="M7451 10523 c0 -12 -5 -23 -10 -25 -5 -1 -12 -21 -15 -43 -3 -22 -3
-33 0 -25 3 8 12 30 21 48 8 18 12 40 10 50 -4 13 -5 12 -6 -5z"/>
<path d="M9204 10465 c-3 -25 -10 -45 -15 -45 -5 0 -9 -11 -9 -25 0 -44 18
-27 25 25 4 28 11 50 16 50 5 0 9 9 9 20 0 38 -19 20 -26 -25z"/>
<path d="M11990 10490 c0 -13 5 -18 15 -14 8 4 15 10 15 14 0 4 -7 10 -15 14
-10 4 -15 -1 -15 -14z"/>
<path d="M9766 10462 c-4 -7 -3 -18 2 -25 5 -7 12 -21 15 -32 l5 -20 0 20 c0
36 -13 71 -22 57z"/>
<path d="M12010 10451 c0 -6 5 -13 10 -16 6 -3 10 1 10 9 0 9 -4 16 -10 16 -5
0 -10 -4 -10 -9z"/>
<path d="M13731 10424 c0 -11 3 -14 6 -6 3 7 2 16 -1 19 -3 4 -6 -2 -5 -13z"/>
<path d="M12030 10405 c0 -8 5 -15 10 -15 6 0 10 7 10 15 0 8 -4 15 -10 15 -5
0 -10 -7 -10 -15z"/>
<path d="M7400 10391 c0 -11 -4 -23 -10 -26 -12 -7 -14 -35 -2 -35 8 0 32 49
32 67 0 7 -4 13 -10 13 -5 0 -10 -9 -10 -19z"/>
<path d="M12050 10359 c0 -11 4 -18 10 -14 5 3 7 12 3 20 -7 21 -13 19 -13 -6z"/>
<path d="M9802 10350 c0 -14 2 -19 5 -12 2 6 2 18 0 25 -3 6 -5 1 -5 -13z"/>
<path d="M9172 10340 c0 -14 2 -19 5 -12 2 6 2 18 0 25 -3 6 -5 1 -5 -13z"/>
<path d="M12066 10332 c-3 -6 -1 -21 5 -34 24 -45 28 -56 34 -92 4 -20 11 -36
16 -36 5 0 9 -10 9 -22 0 -16 3 -19 11 -11 7 7 4 21 -10 47 -12 20 -21 44 -21
52 0 9 -6 30 -14 47 -8 18 -16 39 -18 47 -3 10 -6 11 -12 2z"/>
<path d="M7360 10295 c0 -14 -4 -25 -9 -25 -5 0 -12 -18 -16 -40 -4 -22 -11
-42 -16 -46 -12 -7 -12 -44 0 -44 5 0 12 20 15 45 4 25 11 45 15 45 5 0 11 12
14 28 3 15 9 35 12 45 4 10 3 17 -4 17 -6 0 -11 -11 -11 -25z"/>
<path d="M9810 10310 c0 -5 7 -10 15 -10 8 0 15 5 15 10 0 6 -7 10 -15 10 -8
0 -15 -4 -15 -10z"/>
<path d="M9150 10290 c0 -19 3 -21 12 -12 9 9 9 15 0 24 -9 9 -12 7 -12 -12z"/>
<path d="M11812 10283 c5 -25 28 -28 28 -4 0 12 -6 21 -16 21 -9 0 -14 -7 -12
-17z"/>
<path d="M9837 10275 c-4 -8 -2 -17 3 -20 6 -4 10 3 10 14 0 25 -6 27 -13 6z"/>
<path d="M9137 10246 c-4 -10 -5 -21 -2 -24 9 -9 17 6 13 25 -3 17 -4 17 -11
-1z"/>
<path d="M11834 10239 c-4 -7 1 -16 10 -21 9 -5 16 -16 16 -25 0 -9 2 -14 5
-11 8 7 -6 68 -16 68 -4 0 -11 -5 -15 -11z"/>
<path d="M9855 10230 c-5 -9 -4 -15 3 -18 7 -2 12 -11 12 -19 0 -20 33 -116
42 -123 4 -3 10 -25 14 -48 4 -23 10 -42 15 -42 12 0 12 -2 -12 66 -11 32 -23
71 -26 87 -3 15 -9 27 -14 27 -5 0 -9 10 -10 23 0 12 -4 31 -8 41 -6 16 -9 17
-16 6z"/>
<path d="M9112 10185 c0 -16 2 -22 5 -12 2 9 2 23 0 30 -3 6 -5 -1 -5 -18z"/>
<path d="M11870 10150 c0 -11 5 -20 10 -20 6 0 10 -10 10 -22 0 -12 3 -19 6
-16 8 9 -7 78 -17 78 -5 0 -9 -9 -9 -20z"/>
<path d="M9090 10135 c0 -8 5 -15 10 -15 6 0 10 7 10 15 0 8 -4 15 -10 15 -5
0 -10 -7 -10 -15z"/>
<path d="M7300 10112 c0 -12 -4 -22 -10 -22 -5 0 -10 -7 -10 -15 0 -8 4 -15 9
-15 11 0 26 59 17 67 -3 4 -6 -3 -6 -15z"/>
<path d="M12150 10111 c0 -6 5 -13 10 -16 6 -3 10 -16 10 -28 0 -14 3 -18 10
-11 7 7 6 19 -2 37 -13 26 -28 36 -28 18z"/>
<path d="M9080 10088 c0 -15 -4 -28 -9 -30 -5 -1 -11 -23 -14 -48 -2 -25 -2
-35 0 -22 2 12 8 22 13 22 9 0 24 89 16 98 -3 3 -6 -6 -6 -20z"/>
<path d="M11900 10071 c0 -5 7 -22 16 -37 15 -27 15 -27 10 -4 -3 14 -6 31 -6
38 0 6 -4 12 -10 12 -5 0 -10 -4 -10 -9z"/>
<path d="M7268 10044 c-5 -4 -8 -16 -8 -26 0 -10 -4 -18 -10 -18 -5 0 -10 -7
-10 -15 0 -8 7 -15 16 -15 8 0 12 5 8 11 -3 6 -1 15 6 19 6 4 10 17 8 30 -1
12 -6 18 -10 14z"/>
<path d="M12192 10025 c0 -36 13 -71 22 -57 4 7 3 18 -2 25 -5 7 -12 21 -15
32 l-5 20 0 -20z"/>
<path d="M11938 9994 c-12 -11 -10 -17 17 -48 14 -16 25 -24 25 -19 0 6 -6 16
-14 23 -8 6 -16 21 -18 32 -2 11 -6 16 -10 12z"/>
<path d="M9950 9962 c0 -5 8 -24 17 -43 17 -33 18 -33 21 -9 2 13 -1 26 -7 28
-6 2 -11 10 -11 18 0 8 -4 14 -10 14 -5 0 -10 -4 -10 -8z"/>
<path d="M12226 9925 c6 -44 10 -52 21 -42 3 4 1 17 -5 30 -6 12 -13 29 -16
37 -3 8 -3 -3 0 -25z"/>
<path d="M7220 9935 c0 -8 5 -15 10 -15 6 0 10 7 10 15 0 8 -4 15 -10 15 -5 0
-10 -7 -10 -15z"/>
<path d="M9027 9923 c-3 -16 -9 -36 -12 -45 -4 -11 -3 -18 4 -18 6 0 11 11 11
24 0 14 5 28 10 31 12 8 13 35 1 35 -5 0 -11 -12 -14 -27z"/>
<path d="M7210 9887 c0 -15 -4 -27 -9 -27 -5 0 -12 -17 -16 -37 -4 -21 -10
-40 -15 -43 -4 -3 -10 -23 -12 -45 -3 -22 -3 -32 -1 -22 2 9 8 17 13 17 4 0
11 20 14 45 4 25 11 45 16 45 10 0 25 79 16 87 -3 4 -6 -6 -6 -20z"/>
<path d="M11986 9875 c3 -22 9 -42 14 -45 4 -3 10 -14 13 -25 4 -11 4 -2 1 20
-3 22 -9 42 -14 45 -4 3 -10 14 -13 25 -4 11 -4 2 -1 -20z"/>
<path d="M14238 9738 c2 -95 6 -176 10 -180 4 -4 6 74 4 172 -2 99 -6 180 -10
180 -4 0 -6 -78 -4 -172z"/>
<path d="M9991 9864 c0 -11 3 -14 6 -6 3 7 2 16 -1 19 -3 4 -6 -2 -5 -13z"/>
<path d="M12250 9855 c0 -8 4 -15 10 -15 5 0 7 7 4 15 -4 8 -8 15 -10 15 -2 0
-4 -7 -4 -15z"/>
<path d="M8990 9830 c0 -11 5 -20 10 -20 6 0 10 9 10 20 0 11 -4 20 -10 20 -5
0 -10 -9 -10 -20z"/>
<path d="M10000 9831 c0 -6 5 -13 10 -16 6 -3 10 -17 10 -31 0 -13 5 -24 10
-24 13 0 13 6 -2 47 -11 31 -28 45 -28 24z"/>
<path d="M12270 9805 c0 -8 5 -15 10 -15 6 0 10 7 10 15 0 8 -4 15 -10 15 -5
0 -10 -7 -10 -15z"/>
<path d="M8965 9753 c-4 -27 -11 -50 -15 -53 -4 -3 -10 -25 -13 -50 -2 -25 -2
-36 0 -25 3 11 9 25 14 30 4 6 11 30 15 53 4 23 11 45 15 48 12 7 12 44 0 44
-5 0 -12 -21 -16 -47z"/>
<path d="M12020 9771 c0 -6 5 -13 10 -16 6 -3 10 -16 10 -29 0 -12 7 -31 15
-42 13 -17 14 -17 15 -1 0 9 -4 17 -9 17 -5 0 -11 18 -15 40 -3 22 -11 40 -16
40 -6 0 -10 -4 -10 -9z"/>
<path d="M12290 9764 c0 -8 5 -12 10 -9 6 4 8 11 5 16 -9 14 -15 11 -15 -7z"/>
<path d="M10046 9715 c6 -44 10 -52 21 -42 3 4 1 17 -5 30 -6 12 -13 29 -16
37 -3 8 -3 -3 0 -25z"/>
<path d="M12311 9739 c-2 -31 11 -79 20 -73 5 3 6 10 3 16 -4 6 -11 25 -15 42
-4 17 -7 24 -8 15z"/>
<path d="M7127 9673 c-12 -11 -8 -23 8 -23 8 0 15 7 15 15 0 16 -12 20 -23 8z"/>
<path d="M10070 9640 c0 -19 3 -21 12 -12 9 9 9 15 0 24 -9 9 -12 7 -12 -12z"/>
<path d="M12070 9641 c0 -12 5 -21 10 -21 6 0 10 6 10 14 0 8 -4 18 -10 21 -5
3 -10 -3 -10 -14z"/>
<path d="M12342 9640 c0 -14 2 -19 5 -12 2 6 2 18 0 25 -3 6 -5 1 -5 -13z"/>
<path d="M7110 9619 c0 -11 5 -17 10 -14 6 3 10 13 10 21 0 8 -4 14 -10 14 -5
0 -10 -9 -10 -21z"/>
<path d="M10090 9595 c0 -8 5 -15 10 -15 6 0 10 7 10 15 0 8 -4 15 -10 15 -5
0 -10 -7 -10 -15z"/>
<path d="M12090 9601 c0 -6 5 -13 10 -16 6 -3 10 1 10 9 0 9 -4 16 -10 16 -5
0 -10 -4 -10 -9z"/>
<path d="M12350 9595 c0 -8 5 -15 10 -15 6 0 10 7 10 15 0 8 -4 15 -10 15 -5
0 -10 -7 -10 -15z"/>
<path d="M7090 9578 c0 -8 -7 -29 -16 -46 -8 -18 -13 -42 -11 -54 4 -19 4 -19
6 5 0 16 5 26 10 23 9 -6 25 73 16 82 -3 3 -5 -1 -5 -10z"/>
<path d="M8905 9550 c-4 -23 -4 -44 -1 -47 3 -4 6 5 6 18 0 14 5 30 12 37 9 9
9 15 1 23 -8 8 -13 -1 -18 -31z"/>
<path d="M10110 9553 c0 -10 7 -31 15 -47 8 -15 15 -35 15 -43 0 -8 4 -12 9
-9 10 7 -8 67 -23 77 -5 4 -6 11 -2 17 3 6 2 13 -4 17 -5 3 -10 -2 -10 -12z"/>
<path d="M12110 9550 c0 -11 4 -20 9 -20 5 0 12 -18 16 -40 4 -22 11 -40 15
-40 5 0 11 -8 13 -17 2 -10 2 -2 0 17 -3 19 -9 37 -13 40 -4 3 -11 22 -15 43
-8 39 -25 51 -25 17z"/>
<path d="M12371 9554 c0 -11 3 -14 6 -6 3 7 2 16 -1 19 -3 4 -6 -2 -5 -13z"/>
<path d="M12380 9515 c0 -8 7 -15 15 -15 8 0 15 4 15 9 0 5 -7 11 -15 15 -9 3
-15 0 -15 -9z"/>
<path d="M8877 9475 c-4 -8 -2 -17 3 -20 6 -4 10 3 10 14 0 25 -6 27 -13 6z"/>
<path d="M12410 9469 c0 -11 4 -18 10 -14 5 3 7 12 3 20 -7 21 -13 19 -13 -6z"/>
<path d="M7036 9418 c-3 -17 -4 -33 -1 -36 3 -3 5 2 5 11 0 10 5 17 10 17 6 0
10 9 10 20 0 32 -17 23 -24 -12z"/>
<path d="M8850 9420 c0 -11 5 -20 10 -20 6 0 10 9 10 20 0 11 -4 20 -10 20 -5
0 -10 -9 -10 -20z"/>
<path d="M10124 9428 c-7 -13 -27 -18 -79 -21 l-70 -3 70 -2 c73 -2 100 7 93
29 -3 10 -7 10 -14 -3z"/>
<path d="M12425 9431 c-3 -5 -1 -12 5 -16 5 -3 10 1 10 9 0 18 -6 21 -15 7z"/>
<path d="M14240 9310 c-1 -74 -3 -210 -4 -302 0 -93 -4 -168 -8 -168 -5 0 -8
-34 -8 -75 0 -72 12 -105 17 -47 6 61 15 660 11 692 -3 19 -6 -26 -8 -100z"/>
<path d="M9245 9400 c-7 -11 424 -12 535 -1 51 6 -21 9 -227 10 -182 0 -304
-3 -308 -9z"/>
<path d="M9125 9382 c-3 -8 -5 -25 -5 -38 0 -13 -4 -24 -9 -24 -5 0 -12 -21
-16 -47 -4 -27 -11 -53 -17 -60 -5 -7 -8 -20 -6 -30 3 -11 9 -2 18 27 7 25 17
50 21 55 4 6 11 34 15 63 l7 52 48 0 c27 0 49 4 49 9 0 14 -99 8 -105 -7z"/>
<path d="M12170 9386 c0 -8 5 -18 10 -21 6 -3 10 -15 10 -26 0 -10 5 -19 10
-19 6 0 10 9 10 20 0 11 -4 20 -10 20 -5 0 -10 9 -10 20 0 11 -4 20 -10 20 -5
0 -10 -6 -10 -14z"/>
<path d="M12440 9379 c0 -11 5 -17 10 -14 6 3 10 13 10 21 0 8 -4 14 -10 14
-5 0 -10 -9 -10 -21z"/>
<path d="M8842 9370 c0 -14 2 -19 5 -12 2 6 2 18 0 25 -3 6 -5 1 -5 -13z"/>
<path d="M7010 9345 c1 -26 2 -28 11 -12 8 14 8 22 0 30 -8 8 -11 3 -11 -18z"/>
<path d="M12466 9325 c6 -44 10 -52 21 -42 3 4 1 17 -5 30 -6 12 -13 29 -16
37 -3 8 -3 -3 0 -25z"/>
<path d="M8820 9320 c0 -11 5 -20 10 -20 6 0 10 9 10 20 0 11 -4 20 -10 20 -5
0 -10 -9 -10 -20z"/>
<path d="M12214 9309 c-3 -6 -1 -16 5 -22 8 -8 11 -5 11 11 0 24 -5 28 -16 11z"/>
<path d="M6990 9300 c0 -5 5 -10 10 -10 6 0 10 5 10 10 0 6 -4 10 -10 10 -5 0
-10 -4 -10 -10z"/>
<path d="M8810 9271 c0 -11 -4 -21 -9 -23 -5 -1 -11 -25 -13 -53 -3 -27 -3
-41 -1 -30 3 11 9 25 14 30 10 14 24 95 15 95 -3 0 -6 -9 -6 -19z"/>
<path d="M6971 9254 c0 -11 3 -14 6 -6 3 7 2 16 -1 19 -3 4 -6 -2 -5 -13z"/>
<path d="M12230 9261 c0 -6 5 -13 10 -16 6 -3 10 1 10 9 0 9 -4 16 -10 16 -5
0 -10 -4 -10 -9z"/>
<path d="M12495 9250 c2 -14 5 -31 5 -37 0 -7 7 -13 15 -13 17 0 20 16 4 25
-6 4 -15 17 -20 29 -9 19 -9 19 -4 -4z"/>
<path d="M6950 9210 c0 -11 5 -20 10 -20 6 0 10 9 10 20 0 11 -4 20 -10 20 -5
0 -10 -9 -10 -20z"/>
<path d="M12251 9217 c0 -11 5 -33 13 -50 8 -18 17 -39 20 -47 3 -8 3 3 0 25
-3 22 -9 42 -14 45 -4 3 -10 14 -13 25 -4 18 -5 18 -6 2z"/>
<path d="M12526 9182 c-5 -8 -1 -21 10 -33 9 -10 13 -19 9 -19 -5 0 -4 -5 3
-12 7 -7 12 -20 12 -30 0 -10 5 -18 10 -18 6 0 10 6 10 14 0 8 -4 18 -10 21
-5 3 -10 17 -10 31 0 13 -4 24 -9 24 -5 0 -11 8 -13 18 -3 13 -5 14 -12 4z"/>
<path d="M6941 9163 c0 -12 -5 -23 -11 -25 -5 -1 -11 -23 -14 -48 -3 -25 -3
-36 0 -25 3 11 12 35 20 53 9 18 13 40 11 50 -4 13 -5 12 -6 -5z"/>
<path d="M9050 9150 c0 -5 5 -10 10 -10 6 0 10 5 10 10 0 6 -4 10 -10 10 -5 0
-10 -4 -10 -10z"/>
<path d="M8762 9115 c0 -16 2 -22 5 -12 2 9 2 23 0 30 -3 6 -5 -1 -5 -18z"/>
<path d="M9032 9090 c0 -14 2 -19 5 -12 2 6 2 18 0 25 -3 6 -5 1 -5 -13z"/>
<path d="M12295 9083 c4 -10 10 -28 12 -40 3 -13 9 -23 14 -23 5 0 9 -10 9
-22 0 -16 3 -19 11 -11 7 7 4 21 -10 47 -12 20 -21 43 -21 51 0 8 -5 15 -11
15 -7 0 -8 -7 -4 -17z"/>
<path d="M8730 9062 c0 -5 7 -13 16 -16 10 -4 14 -1 12 6 -5 15 -28 23 -28 10z"/>
<path d="M9010 9040 c0 -11 5 -20 10 -20 6 0 10 9 10 20 0 11 -4 20 -10 20 -5
0 -10 -9 -10 -20z"/>
<path d="M12586 9025 c3 -22 10 -41 15 -43 5 -2 10 -13 10 -25 1 -17 2 -18 6
-5 2 10 -2 32 -10 50 -9 18 -18 40 -21 48 -3 8 -3 -3 0 -25z"/>
<path d="M6890 9020 c0 -11 -4 -20 -10 -20 -5 0 -10 -9 -10 -20 0 -11 5 -20
10 -20 6 0 10 9 10 19 0 11 5 23 10 26 6 3 10 13 10 21 0 8 -4 14 -10 14 -5 0
-10 -9 -10 -20z"/>
<path d="M8722 9010 c0 -14 2 -19 5 -12 2 6 2 18 0 25 -3 6 -5 1 -5 -13z"/>
<path d="M9000 8977 c0 -14 -4 -29 -10 -32 -12 -8 -13 -45 -1 -45 10 0 25 89
17 98 -3 3 -6 -6 -6 -21z"/>
<path d="M8694 8935 c-3 -25 -10 -48 -15 -51 -5 -3 -9 -14 -9 -25 0 -36 19
-10 26 36 3 25 10 45 15 45 5 0 9 9 9 20 0 38 -19 20 -26 -25z"/>
<path d="M12347 8966 c-3 -8 1 -20 9 -26 8 -7 14 -22 14 -34 0 -12 7 -31 15
-42 13 -17 14 -17 15 -1 0 9 -4 17 -9 17 -5 0 -12 20 -15 45 -7 47 -20 65 -29
41z"/>
<path d="M6850 8938 c0 -15 -4 -28 -9 -30 -5 -1 -12 -21 -15 -43 -3 -22 -3
-31 1 -20 3 11 8 22 12 25 15 12 30 75 21 84 -7 7 -10 1 -10 -16z"/>
<path d="M12620 8916 c0 -9 5 -16 10 -16 6 0 10 4 10 9 0 6 -4 13 -10 16 -5 3
-10 -1 -10 -9z"/>
<path d="M8972 8870 c0 -14 2 -19 5 -12 2 6 2 18 0 25 -3 6 -5 1 -5 -13z"/>
<path d="M12640 8869 c0 -11 5 -17 10 -14 6 3 10 13 10 21 0 8 -4 14 -10 14
-5 0 -10 -9 -10 -21z"/>
<path d="M8950 8819 c0 -11 5 -17 10 -14 6 3 10 13 10 21 0 8 -4 14 -10 14 -5
0 -10 -9 -10 -21z"/>
<path d="M12401 8830 c-1 -19 32 -114 42 -118 4 -2 7 -11 7 -19 0 -9 3 -14 6
-10 4 3 3 14 -1 24 -12 26 -12 25 -20 61 -4 17 -11 32 -16 32 -4 0 -10 10 -12
23 -2 12 -5 15 -6 7z"/>
<path d="M12666 8831 c-4 -5 -2 -12 4 -16 5 -3 10 -15 10 -26 0 -10 5 -19 10
-19 14 0 13 13 -4 45 -8 14 -17 22 -20 16z"/>
<path d="M8662 8805 c0 -16 2 -22 5 -12 2 9 2 23 0 30 -3 6 -5 -1 -5 -18z"/>
<path d="M6800 8800 c0 -11 5 -20 10 -20 6 0 10 9 10 20 0 11 -4 20 -10 20 -5
0 -10 -9 -10 -20z"/>
<path d="M8936 8782 c-2 -4 -1 -14 5 -22 7 -12 9 -10 9 8 0 23 -5 28 -14 14z"/>
<path d="M8642 8755 c0 -16 2 -22 5 -12 2 9 2 23 0 30 -3 6 -5 -1 -5 -18z"/>
<path d="M6791 8753 c0 -13 -4 -23 -9 -23 -11 0 -30 -70 -21 -76 5 -3 9 1 9 9
0 8 7 28 16 45 8 18 13 40 11 50 -4 13 -5 11 -6 -5z"/>
<path d="M12702 8740 c0 -14 2 -19 5 -12 2 6 2 18 0 25 -3 6 -5 1 -5 -13z"/>
<path d="M8910 8718 c0 -15 -4 -28 -9 -30 -5 -1 -12 -25 -15 -53 -3 -27 -3
-41 0 -30 3 11 9 29 13 40 30 73 32 78 21 89 -7 7 -10 2 -10 -16z"/>
<path d="M8620 8710 c-13 -9 -13 -11 0 -20 10 -6 16 -6 18 0 7 20 -3 30 -18
20z"/>
<path d="M12710 8696 c0 -8 5 -18 10 -21 6 -3 10 -16 10 -27 0 -12 3 -19 6
-16 8 9 -7 78 -17 78 -5 0 -9 -6 -9 -14z"/>
<path d="M8600 8658 c0 -16 5 -28 10 -28 13 0 13 20 0 40 -8 12 -10 9 -10 -12z"/>
<path d="M12467 8663 c-13 -12 -7 -33 8 -33 8 0 15 9 15 20 0 20 -11 26 -23
13z"/>
<path d="M6730 8615 c0 -8 5 -15 10 -15 6 0 10 7 10 15 0 8 -4 15 -10 15 -5 0
-10 -7 -10 -15z"/>
<path d="M8575 8579 c-4 -22 -4 -43 -1 -46 3 -4 6 5 6 20 0 14 5 29 10 32 13
8 13 35 1 35 -5 0 -12 -18 -16 -41z"/>
<path d="M12491 8604 c0 -11 3 -14 6 -6 3 7 2 16 -1 19 -3 4 -6 -2 -5 -13z"/>
<path d="M12740 8605 c0 -8 5 -15 10 -15 6 0 10 -9 10 -20 0 -11 5 -20 11 -20
7 0 8 7 4 18 -4 9 -10 25 -12 35 -6 21 -23 23 -23 2z"/>
<path d="M6710 8574 c0 -8 5 -12 10 -9 6 3 10 10 10 16 0 5 -4 9 -10 9 -5 0
-10 -7 -10 -16z"/>
<path d="M8855 8525 c-4 -30 -11 -55 -15 -55 -4 0 -10 -15 -13 -32 -3 -18 -8
-41 -12 -50 -4 -11 -3 -18 4 -18 6 0 11 11 11 24 0 14 4 28 10 31 5 3 12 28
16 56 4 27 11 52 15 55 12 7 11 44 0 44 -5 0 -13 -25 -16 -55z"/>
<path d="M12500 8576 c0 -2 7 -19 16 -37 11 -25 14 -27 10 -9 -3 14 -6 31 -6
38 0 6 -4 12 -10 12 -5 0 -10 -2 -10 -4z"/>
<path d="M6702 8530 c0 -14 2 -19 5 -12 2 6 2 18 0 25 -3 6 -5 1 -5 -13z"/>
<path d="M12780 8526 c0 -8 5 -18 10 -21 6 -3 10 -16 10 -28 0 -15 3 -18 11
-10 8 8 8 19 -2 42 -15 33 -29 41 -29 17z"/>
<path d="M8550 8501 c0 -11 -4 -22 -9 -25 -5 -3 -12 -22 -16 -42 -3 -20 -12
-45 -18 -55 -8 -13 -8 -22 -1 -29 8 -8 13 1 18 31 4 24 11 48 16 54 10 13 24
85 16 85 -3 0 -6 -9 -6 -19z"/>
<path d="M6675 8464 c-3 -20 -4 -39 -1 -42 3 -3 6 4 6 16 0 12 5 22 10 22 6 0
10 9 10 20 0 34 -17 22 -25 -16z"/>
<path d="M12530 8486 c0 -8 5 -18 10 -21 6 -3 10 -15 10 -26 0 -10 5 -19 10
-19 6 0 10 6 10 14 0 8 -4 18 -10 21 -5 3 -10 15 -10 26 0 10 -4 19 -10 19 -5
0 -10 -6 -10 -14z"/>
<path d="M12826 8420 c7 -39 11 -46 20 -37 4 4 -1 21 -10 39 l-17 33 7 -35z"/>
<path d="M6645 8373 c-4 -21 -13 -45 -21 -55 -10 -10 -11 -18 -5 -22 12 -8 16
-2 35 55 18 51 19 59 7 59 -5 0 -12 -17 -16 -37z"/>
<path d="M12565 8393 c4 -10 10 -28 12 -40 6 -28 23 -30 23 -3 0 11 -4 20 -10
20 -5 0 -10 9 -10 20 0 11 -5 20 -11 20 -7 0 -8 -7 -4 -17z"/>
<path d="M12851 8354 c0 -11 3 -14 6 -6 3 7 2 16 -1 19 -3 4 -6 -2 -5 -13z"/>
<path d="M8790 8340 c0 -13 5 -20 13 -17 6 2 12 10 12 17 0 7 -6 15 -12 18 -8
2 -13 -5 -13 -18z"/>
<path d="M8484 8319 c-3 -6 -1 -16 5 -22 8 -8 11 -5 11 11 0 24 -5 28 -16 11z"/>
<path d="M12607 8323 c-4 -6 2 -27 13 -45 11 -18 20 -26 20 -17 0 8 -4 19 -9
25 -5 5 -11 18 -13 29 -2 13 -6 16 -11 8z"/>
<path d="M12860 8310 c0 -11 5 -20 10 -20 6 0 10 -10 10 -22 0 -12 3 -19 6
-16 8 9 -7 78 -17 78 -5 0 -9 -9 -9 -20z"/>
<path d="M8770 8290 c0 -13 5 -20 13 -17 6 2 12 10 12 17 0 7 -6 15 -12 18 -8
2 -13 -5 -13 -18z"/>
<path d="M6590 8260 c0 -13 5 -20 13 -17 6 2 12 10 12 17 0 7 -6 15 -12 18 -8
2 -13 -5 -13 -18z"/>
<path d="M8460 8259 c0 -11 5 -17 10 -14 6 3 10 13 10 21 0 8 -4 14 -10 14 -5
0 -10 -9 -10 -21z"/>
<path d="M8760 8227 c0 -15 -4 -27 -10 -27 -5 0 -10 -9 -10 -20 0 -11 4 -20 9
-20 11 0 26 78 17 87 -3 4 -6 -6 -6 -20z"/>
<path d="M12646 8215 c5 -34 28 -95 36 -95 12 0 10 28 -2 35 -5 3 -10 15 -10
26 0 10 -4 19 -9 19 -5 0 -12 8 -14 18 -2 10 -3 9 -1 -3z"/>
<path d="M12900 8225 c0 -8 5 -15 10 -15 6 0 10 7 10 15 0 8 -4 15 -10 15 -5
0 -10 -7 -10 -15z"/>
<path d="M6580 8212 c0 -11 -4 -24 -10 -27 -13 -8 -13 -35 0 -35 11 0 25 68
16 77 -3 4 -6 -3 -6 -15z"/>
<path d="M8447 8215 c-4 -8 -2 -17 3 -20 6 -4 10 3 10 14 0 25 -6 27 -13 6z"/>
<path d="M12920 8178 c0 -10 4 -18 9 -18 5 0 12 -18 16 -40 4 -22 10 -40 15
-40 4 0 11 -20 14 -45 4 -25 11 -45 16 -45 5 0 11 -8 13 -17 2 -10 2 -2 0 17
-3 19 -9 37 -14 38 -5 2 -9 13 -9 25 0 12 -7 35 -15 51 -8 15 -15 34 -15 40 0
7 -7 21 -15 32 -13 17 -14 17 -15 2z"/>
<path d="M8430 8158 c0 -19 2 -20 10 -8 13 19 13 30 0 30 -5 0 -10 -10 -10
-22z"/>
<path d="M10648 8124 c2 -13 8 -24 12 -24 5 0 11 -18 15 -40 7 -41 25 -56 25
-20 0 11 -4 20 -9 20 -5 0 -12 18 -16 39 -4 22 -12 42 -19 44 -9 4 -11 -2 -8
-19z"/>
<path d="M6551 8118 c0 -14 -5 -28 -10 -30 -5 -1 -12 -19 -15 -38 -7 -35 -7
-35 14 8 12 24 19 53 17 65 -4 19 -4 18 -6 -5z"/>
<path d="M8412 8107 c-7 -16 -12 -38 -12 -50 1 -17 4 -15 16 12 8 19 13 42 11
50 -3 11 -8 7 -15 -12z"/>
<path d="M12691 8094 c0 -11 3 -14 6 -6 3 7 2 16 -1 19 -3 4 -6 -2 -5 -13z"/>
<path d="M12700 8055 c0 -9 9 -25 20 -37 11 -12 20 -17 20 -10 0 6 -4 14 -10
17 -5 3 -10 15 -10 26 0 10 -4 19 -10 19 -5 0 -10 -7 -10 -15z"/>
<path d="M8387 8016 c-4 -10 -5 -21 -2 -24 9 -9 17 6 13 25 -3 17 -4 17 -11
-1z"/>
<path d="M6500 7991 c0 -12 5 -21 10 -21 6 0 10 6 10 14 0 8 -4 18 -10 21 -5
3 -10 -3 -10 -14z"/>
<path d="M10702 7990 c0 -14 2 -19 5 -12 2 6 2 18 0 25 -3 6 -5 1 -5 -13z"/>
<path d="M12752 7975 c0 -11 4 -31 8 -45 6 -20 8 -21 8 -5 0 11 -4 31 -8 45
-6 20 -8 21 -8 5z"/>
<path d="M8364 7959 c-3 -6 -1 -16 5 -22 8 -8 11 -5 11 11 0 24 -5 28 -16 11z"/>
<path d="M6485 7947 c-4 -10 -5 -21 -1 -24 10 -10 18 4 13 24 -4 17 -4 17 -12
0z"/>
<path d="M13012 7929 c2 -7 10 -15 17 -17 8 -3 12 1 9 9 -2 7 -10 15 -17 17
-8 3 -12 -1 -9 -9z"/>
<path d="M8335 7888 c-4 -18 -7 -39 -6 -45 1 -7 -3 -13 -9 -13 -5 0 -10 -8
-10 -19 0 -10 -7 -35 -16 -56 -8 -20 -13 -47 -11 -59 3 -17 5 -15 6 7 0 15 6
27 11 27 6 0 10 8 10 18 0 18 27 106 41 134 11 23 11 38 0 38 -5 0 -12 -15
-16 -32z"/>
<path d="M10740 7901 c0 -12 4 -21 9 -21 5 0 12 -20 15 -45 4 -25 11 -45 17
-45 11 0 12 27 0 34 -4 3 -11 23 -15 45 -6 43 -26 66 -26 32z"/>
<path d="M6461 7894 c0 -11 3 -14 6 -6 3 7 2 16 -1 19 -3 4 -6 -2 -5 -13z"/>
<path d="M12779 7895 c-7 -7 13 -75 23 -75 3 0 9 -18 13 -40 4 -22 11 -40 16
-40 12 0 12 27 -1 35 -5 3 -10 13 -10 22 0 8 -6 29 -14 46 -8 18 -16 38 -18
45 -2 7 -6 11 -9 7z"/>
<path d="M13030 7885 c0 -9 5 -15 11 -13 6 2 11 8 11 13 0 5 -5 11 -11 13 -6
2 -11 -4 -11 -13z"/>
<path d="M6440 7849 c0 -11 5 -17 10 -14 6 3 10 13 10 21 0 8 -4 14 -10 14 -5
0 -10 -9 -10 -21z"/>
<path d="M13059 7855 c-7 -6 11 -66 22 -75 4 -3 9 -14 12 -25 4 -11 4 -2 1 20
-3 22 -9 42 -14 45 -4 3 -9 13 -11 23 -2 11 -7 16 -10 12z"/>
<path d="M6430 7802 c0 -12 -4 -22 -10 -22 -5 0 -10 -9 -10 -20 0 -11 4 -20 9
-20 10 0 25 69 17 78 -3 3 -6 -4 -6 -16z"/>
<path d="M10791 7764 c0 -11 3 -14 6 -6 3 7 2 16 -1 19 -3 4 -6 -2 -5 -13z"/>
<path d="M10800 7721 c0 -12 5 -21 10 -21 6 0 10 6 10 14 0 8 -4 18 -10 21 -5
3 -10 -3 -10 -14z"/>
<path d="M6402 7710 c0 -14 2 -19 5 -12 2 6 2 18 0 25 -3 6 -5 1 -5 -13z"/>
<path d="M12840 7707 c0 -12 9 -28 20 -35 17 -10 20 -10 20 3 0 8 -4 15 -10
15 -5 0 -10 9 -10 20 0 11 -4 20 -10 20 -5 0 -10 -10 -10 -23z"/>
<path d="M13100 7716 c0 -8 5 -18 10 -21 6 -3 10 -16 10 -27 0 -12 3 -19 6
-15 9 9 -5 77 -16 77 -6 0 -10 -6 -10 -14z"/>
<path d="M10827 7646 c4 -43 10 -56 24 -56 14 0 11 26 -5 40 -8 6 -17 21 -19
33 -2 12 -3 4 0 -17z"/>
<path d="M6380 7663 c0 -12 -4 -25 -10 -28 -12 -7 -13 -25 -2 -25 14 0 33 53
22 64 -7 7 -10 3 -10 -11z"/>
<path d="M8261 7638 c-7 -21 -10 -48 -8 -60 3 -18 5 -16 6 8 0 16 6 35 12 41
6 6 9 19 7 29 -3 14 -8 8 -17 -18z"/>
<path d="M12882 7625 c0 -16 2 -22 5 -12 2 9 2 23 0 30 -3 6 -5 -1 -5 -18z"/>
<path d="M13130 7625 c0 -8 3 -15 6 -15 3 0 12 7 20 15 14 13 13 15 -5 15 -12
0 -21 -6 -21 -15z"/>
<path d="M6340 7581 c0 -12 5 -21 10 -21 6 0 10 6 10 14 0 8 -4 18 -10 21 -5
3 -10 -3 -10 -14z"/>
<path d="M12895 7580 c-4 -6 -75 -10 -181 -10 -104 0 -174 -4 -174 -10 0 -5
76 -10 185 -12 l185 -3 0 23 c0 24 -5 28 -15 12z"/>
<path d="M10852 7568 c6 -18 28 -21 28 -4 0 9 -7 16 -16 16 -9 0 -14 -5 -12
-12z"/>
<path d="M12070 7560 c0 -6 73 -10 200 -10 127 0 200 4 200 10 0 6 -73 10
-200 10 -127 0 -200 -4 -200 -10z"/>
<path d="M12480 7560 c0 -5 5 -10 10 -10 6 0 10 5 10 10 0 6 -4 10 -10 10 -5
0 -10 -4 -10 -10z"/>
<path d="M12510 7560 c0 -5 5 -10 10 -10 6 0 10 5 10 10 0 6 -4 10 -10 10 -5
0 -10 -4 -10 -10z"/>
</g>
</svg>
